<svg width="52" height="52" viewBox="0 0 52 52" fill="none" xmlns="http://www.w3.org/2000/svg" xmlns:xlink="http://www.w3.org/1999/xlink">
<path d="M45.435,17.333L39.065,17.333C36.313,17.333 34.667,15.687 34.667,12.935L34.667,6.565C34.667,3.813 36.313,2.167 39.065,2.167L45.435,2.167C48.187,2.167 49.833,3.813 49.833,6.565L49.833,12.935C49.833,15.687 48.187,17.333 45.435,17.333ZM45.912,10.162C45.652,9.902 45.305,9.772 44.958,9.772C44.612,9.772 44.265,9.902 44.005,10.162L43.615,10.552L43.615,5.698C43.615,4.94 43.008,4.333 42.25,4.333C41.492,4.333 40.885,4.94 40.885,5.698L40.885,10.552L40.495,10.162C39.975,9.642 39.108,9.642 38.588,10.162C38.068,10.682 38.068,11.548 38.588,12.068L41.297,14.777C41.405,14.885 41.557,14.972 41.708,15.037C41.752,15.058 41.795,15.058 41.838,15.08C41.947,15.123 42.055,15.145 42.185,15.145C42.228,15.145 42.272,15.145 42.315,15.145C42.467,15.145 42.597,15.123 42.748,15.058C42.77,15.058 42.77,15.058 42.792,15.058C42.943,14.993 43.073,14.907 43.182,14.798C43.203,14.777 43.203,14.777 43.225,14.777L45.933,12.068C46.453,11.548 46.453,10.682 45.912,10.162Z" fill="#27C153"/>
<g opacity="0.4">
<path d="M47.667,16.835L47.667,19.5L4.333,19.5L4.333,16.337C4.333,11.375 8.363,7.367 13.325,7.367L34.667,7.367L34.667,12.935C34.667,15.687 36.313,17.333 39.065,17.333L45.435,17.333C46.302,17.333 47.038,17.182 47.667,16.835Z" fill="#27C153"/>
</g>
<path d="M4.333,19.5L4.333,35.663C4.333,40.625 8.363,44.633 13.325,44.633L38.675,44.633C43.637,44.633 47.667,40.625 47.667,35.663L47.667,19.5L4.333,19.5ZM17.333,37.375L13,37.375C12.112,37.375 11.375,36.638 11.375,35.75C11.375,34.862 12.112,34.125 13,34.125L17.333,34.125C18.222,34.125 18.958,34.862 18.958,35.75C18.958,36.638 18.222,37.375 17.333,37.375ZM31.417,37.375L22.75,37.375C21.862,37.375 21.125,36.638 21.125,35.75C21.125,34.862 21.862,34.125 22.75,34.125L31.417,34.125C32.305,34.125 33.042,34.862 33.042,35.75C33.042,36.638 32.305,37.375 31.417,37.375Z" fill="#27C153"/>
</svg>
