<svg width="90" height="70" viewBox="0 0 90 70" fill="none" xmlns="http://www.w3.org/2000/svg" xmlns:xlink="http://www.w3.org/1999/xlink">
<g filter="url(#filter1_74)">
<rect  x="0" y="0.24" width="89.288" height="69.295" rx="6" fill="#DDF9E4"/>
</g>
<path d="M27.561,23.9L48.313,23.9L48.313,19.9L27.561,19.9L27.561,23.9ZM50.313,25.9L50.313,36.661L54.313,36.661L54.313,25.9L50.313,25.9ZM48.313,38.661L27.561,38.661L27.561,42.661L48.313,42.661L48.313,38.661ZM25.561,36.661L25.561,25.9L21.561,25.9L21.561,36.661L25.561,36.661ZM27.561,38.661C26.456,38.661 25.561,37.765 25.561,36.661L21.561,36.661C21.561,39.974 24.247,42.661 27.561,42.661L27.561,38.661ZM50.313,36.661C50.313,37.765 49.418,38.661 48.313,38.661L48.313,42.661C51.627,42.661 54.313,39.974 54.313,36.661L50.313,36.661ZM48.313,23.9C49.418,23.9 50.313,24.796 50.313,25.9L54.313,25.9C54.313,22.587 51.627,19.9 48.313,19.9L48.313,23.9ZM27.561,19.9C24.247,19.9 21.561,22.587 21.561,25.9L25.561,25.9C25.561,24.796 26.456,23.9 27.561,23.9L27.561,19.9Z" fill="#22A447"/>
<path d="M64.135,32.247L62.932,33.844L64.135,32.247ZM56.311,31.117L58.641,31.117L58.641,27.117L56.311,27.117L56.311,31.117ZM59.844,31.52L62.932,33.844L65.338,30.649L62.25,28.324L59.844,31.52ZM63.729,35.442L63.729,36.662L67.729,36.662L67.729,35.442L63.729,35.442ZM61.729,38.662L56.311,38.662L56.311,42.662L61.729,42.662L61.729,38.662ZM54.311,36.662L54.311,33.117L50.311,33.117L50.311,36.662L54.311,36.662ZM56.311,38.662C55.207,38.662 54.311,37.767 54.311,36.662L50.311,36.662C50.311,39.976 52.998,42.662 56.311,42.662L56.311,38.662ZM63.729,36.662C63.729,37.767 62.834,38.662 61.729,38.662L61.729,42.662C65.043,42.662 67.729,39.976 67.729,36.662L63.729,36.662ZM62.932,33.844C63.434,34.222 63.729,34.814 63.729,35.442L67.729,35.442C67.729,33.558 66.844,31.782 65.338,30.649L62.932,33.844ZM58.641,31.117C59.075,31.117 59.497,31.259 59.844,31.52L62.25,28.324C61.21,27.541 59.943,27.117 58.641,27.117L58.641,31.117ZM56.311,27.117C52.998,27.117 50.311,29.804 50.311,33.117L54.311,33.117C54.311,32.013 55.207,31.117 56.311,31.117L56.311,27.117Z" fill="#22A447"/>
<path d="M34.979,44.267C34.979,44.496 34.861,44.853 34.373,45.22C33.884,45.588 33.118,45.874 32.187,45.874L32.187,49.874C33.903,49.874 35.533,49.353 36.779,48.416C38.025,47.477 38.979,46.03 38.979,44.267L34.979,44.267ZM32.187,45.874C31.257,45.874 30.49,45.588 30.002,45.22C29.514,44.853 29.395,44.496 29.395,44.267L25.395,44.267C25.395,46.03 26.349,47.477 27.596,48.416C28.841,49.353 30.471,49.874 32.187,49.874L32.187,45.874ZM29.395,44.267C29.395,44.038 29.514,43.681 30.002,43.313C30.49,42.945 31.257,42.659 32.187,42.659L32.187,38.659C30.471,38.659 28.841,39.18 27.596,40.118C26.349,41.056 25.395,42.503 25.395,44.267L29.395,44.267ZM32.187,42.659C33.118,42.659 33.884,42.945 34.373,43.313C34.861,43.681 34.979,44.038 34.979,44.267L38.979,44.267C38.979,42.503 38.025,41.056 36.779,40.118C35.533,39.18 33.903,38.659 32.187,38.659L32.187,42.659Z" fill="#22A447"/>
<path d="M59.895,44.267C59.895,44.496 59.777,44.853 59.289,45.22C58.8,45.588 58.034,45.874 57.103,45.874L57.103,49.874C58.819,49.874 60.449,49.353 61.695,48.416C62.941,47.477 63.895,46.03 63.895,44.267L59.895,44.267ZM57.103,45.874C56.173,45.874 55.407,45.588 54.918,45.22C54.43,44.853 54.311,44.496 54.311,44.267L50.311,44.267C50.311,46.03 51.266,47.477 52.512,48.416C53.757,49.353 55.387,49.874 57.103,49.874L57.103,45.874ZM54.311,44.267C54.311,44.038 54.43,43.681 54.918,43.313C55.407,42.945 56.173,42.659 57.103,42.659L57.103,38.659C55.387,38.659 53.757,39.18 52.512,40.118C51.266,41.056 50.311,42.503 50.311,44.267L54.311,44.267ZM57.103,42.659C58.034,42.659 58.8,42.945 59.289,43.313C59.777,43.681 59.895,44.038 59.895,44.267L63.895,44.267C63.895,42.503 62.941,41.056 61.695,40.118C60.449,39.18 58.819,38.659 57.103,38.659L57.103,42.659Z" fill="#22A447"/>
<defs>
<filter id="filter1_74" x="-24" y="-23.760361" width="92.644165" height="82.647743" filterUnits="userSpaceOnUse" color-interpolation-filters="sRGB">
<feFlood flood-opacity="0" result="BackgroundImageFix"/>
<feColorMatrix in="SourceAlpha" type="matrix" values="0 0 0 0 0 0 0 0 0 0 0 0 0 0 0 0 0 0 127 0" result="hardAlpha"/>
<feMorphology radius="0" operator="dilate" in="SourceAlpha" result="0dropshadow"/>
<feOffset dx="0" dy="0"/>
<feGaussianBlur stdDeviation="0.5"/>
<feComposite in2="hardAlpha" operator="out"/>
<feColorMatrix type="matrix" values="0 0 0 0 0 0 0 0 0 0 0 0 0 0 0 0 0 0 0.04 0"/>
<feBlend mode="normal" in2="BackgroundImageFix" result="0dropshadow"/>
<feColorMatrix in="SourceAlpha" type="matrix" values="0 0 0 0 0 0 0 0 0 0 0 0 0 0 0 0 0 0 127 0" result="hardAlpha"/>
<feMorphology radius="0" operator="dilate" in="SourceAlpha" result="1dropshadow"/>
<feOffset dx="0" dy="2"/>
<feGaussianBlur stdDeviation="3"/>
<feComposite in2="hardAlpha" operator="out"/>
<feColorMatrix type="matrix" values="0 0 0 0 0 0 0 0 0 0 0 0 0 0 0 0 0 0 0.04 0"/>
<feBlend mode="normal" in2="0dropshadow" result="1dropshadow"/>
<feColorMatrix in="SourceAlpha" type="matrix" values="0 0 0 0 0 0 0 0 0 0 0 0 0 0 0 0 0 0 127 0" result="hardAlpha"/>
<feMorphology radius="0" operator="dilate" in="SourceAlpha" result="2dropshadow"/>
<feOffset dx="0" dy="16"/>
<feGaussianBlur stdDeviation="12"/>
<feComposite in2="hardAlpha" operator="out"/>
<feColorMatrix type="matrix" values="0 0 0 0 0 0 0 0 0 0 0 0 0 0 0 0 0 0 0.06 0"/>
<feBlend mode="normal" in2="1dropshadow" result="2dropshadow"/>
<feBlend mode="normal" in="SourceGraphic" in2="2dropshadow" result="shape"/>
</filter>
</defs>
</svg>
