<svg width="52" height="52" viewBox="0 0 52 52" fill="none" xmlns="http://www.w3.org/2000/svg" xmlns:xlink="http://www.w3.org/1999/xlink">
<path d="M10.833,32.5C8.797,32.5 6.912,33.215 5.417,34.407C3.423,35.988 2.167,38.437 2.167,41.167C2.167,42.792 2.622,44.33 3.423,45.63C4.918,48.143 7.67,49.833 10.833,49.833C13.022,49.833 15.015,49.032 16.532,47.667C17.203,47.103 17.788,46.41 18.243,45.63C19.045,44.33 19.5,42.792 19.5,41.167C19.5,36.378 15.622,32.5 10.833,32.5ZM15.318,40.235L10.703,44.503C10.4,44.785 9.988,44.937 9.598,44.937C9.187,44.937 8.775,44.785 8.45,44.46L6.305,42.315C5.677,41.687 5.677,40.647 6.305,40.018C6.933,39.39 7.973,39.39 8.602,40.018L9.642,41.058L13.108,37.852C13.758,37.245 14.798,37.288 15.405,37.938C16.012,38.588 15.968,39.628 15.318,40.235Z" fill="#F49A40"/>
<g opacity="0.4">
<path d="M42.207,28.058L46.583,28.058L46.583,24.938C46.583,20.453 42.922,16.792 38.437,16.792L13.563,16.792C9.078,16.792 5.417,20.453 5.417,24.938L5.417,34.407C6.912,33.215 8.797,32.5 10.833,32.5C15.622,32.5 19.5,36.378 19.5,41.167C19.5,42.792 19.045,44.33 18.243,45.63C17.788,46.41 17.203,47.103 16.532,47.667L38.437,47.667C42.922,47.667 46.583,44.005 46.583,39.52L46.583,36.942L42.467,36.942C40.127,36.942 37.982,35.23 37.787,32.89C37.657,31.525 38.177,30.247 39.087,29.358C39.888,28.535 40.993,28.058 42.207,28.058Z" fill="#F49A40"/>
</g>
<path d="M32.175,8.558L32.175,16.792L13.563,16.792C9.078,16.792 5.417,20.453 5.417,24.938L5.417,16.987C5.417,14.408 6.998,12.112 9.403,11.202L26.607,4.702C29.293,3.705 32.175,5.677 32.175,8.558Z" fill="#F49A40"/>
<path d="M48.88,30.268L48.88,34.732C48.88,35.923 47.927,36.898 46.713,36.942L42.467,36.942C40.127,36.942 37.982,35.23 37.787,32.89C37.657,31.525 38.177,30.247 39.087,29.358C39.888,28.535 40.993,28.058 42.207,28.058L46.713,28.058C47.927,28.102 48.88,29.077 48.88,30.268Z" fill="#F49A40"/>
<path d="M30.333,27.625L15.167,27.625C14.278,27.625 13.542,26.888 13.542,26C13.542,25.112 14.278,24.375 15.167,24.375L30.333,24.375C31.222,24.375 31.958,25.112 31.958,26C31.958,26.888 31.222,27.625 30.333,27.625Z" fill="#F49A40"/>
</svg>
