<svg width="1190" height="296" viewBox="0 0 1190 296" fill="none" xmlns="http://www.w3.org/2000/svg" xmlns:xlink="http://www.w3.org/1999/xlink">
<path d="M166.946,32.652C97.275,32.652 52.842,105.455 -0.241,122L-0.241,296L1188.131,296L1188.131,157.432C1104.525,160.189 1103.331,66.802 1048.789,58.848C992.057,50.576 943.287,123.652 819.869,123.652C728.299,123.652 743.381,0 635.887,0C528.395,0 475.491,165.704 360.037,165.705C257.989,165.705 250.553,32.652 166.946,32.652Z" fill="url(#pf_0_1_281)"/>
<path d="M142.563,215.926C67.819,215.926 11.742,172.999 -0.241,159L-0.241,288L1187.133,288L1187.133,230C1119.225,250.592 1009.279,32 932.481,32C841.605,32 805.597,76.927 756.723,130.468C724.765,165.475 699.801,215.926 619.909,215.926C540.019,215.926 422.181,80.001 345.285,80.001C268.391,80.001 225.449,215.926 142.563,215.926Z" fill="url(#pf_0_1_284)"/>
<defs>
<linearGradient id="pf_0_1_281" x1="608.364" y1="-68" x2="608.364" y2="296" gradientUnits="userSpaceOnUse">
<stop stop-color="#00A389" stop-opacity="0.5"/>
<stop offset="1" stop-color="#00A389" stop-opacity="0"/>
</linearGradient>
<linearGradient id="pf_0_1_284" x1="593.445" y1="10" x2="593.445" y2="288" gradientUnits="userSpaceOnUse">
<stop stop-color="#FF4A55" stop-opacity="0.5"/>
<stop offset="1" stop-color="#FF4A55" stop-opacity="0"/>
</linearGradient>
</defs>
</svg>
