<svg width="40" height="30" viewBox="0 0 40 30" fill="none" xmlns="http://www.w3.org/2000/svg" xmlns:xlink="http://www.w3.org/1999/xlink">
<path d="M14.122,25.922C14.122,25.489 14.359,25.247 14.448,25.181C14.535,25.115 14.565,25.133 14.514,25.133L14.514,29.133C15.35,29.133 16.184,28.88 16.853,28.376C17.524,27.872 18.122,27.024 18.122,25.922L14.122,25.922ZM14.514,25.133C14.462,25.133 14.492,25.115 14.58,25.181C14.668,25.247 14.906,25.489 14.906,25.922L10.906,25.922C10.906,27.024 11.503,27.872 12.174,28.376C12.843,28.88 13.677,29.133 14.514,29.133L14.514,25.133ZM14.906,25.922C14.906,26.356 14.668,26.598 14.58,26.664C14.492,26.73 14.462,26.712 14.514,26.712L14.514,22.712C13.677,22.712 12.843,22.965 12.174,23.469C11.503,23.973 10.906,24.821 10.906,25.922L14.906,25.922ZM14.514,26.712C14.565,26.712 14.535,26.73 14.448,26.664C14.359,26.598 14.122,26.356 14.122,25.922L18.122,25.922C18.122,24.821 17.524,23.973 16.853,23.469C16.184,22.965 15.35,22.712 14.514,22.712L14.514,26.712Z" fill="#F8964C"/>
<path d="M31.806,25.922C31.806,25.489 32.044,25.247 32.132,25.181C32.22,25.115 32.25,25.133 32.198,25.133L32.198,29.133C33.035,29.133 33.869,28.88 34.538,28.376C35.208,27.872 35.806,27.024 35.806,25.922L31.806,25.922ZM32.198,25.133C32.147,25.133 32.177,25.115 32.264,25.181C32.352,25.247 32.59,25.489 32.59,25.922L28.59,25.922C28.59,27.024 29.188,27.872 29.858,28.376C30.528,28.88 31.362,29.133 32.198,29.133L32.198,25.133ZM32.59,25.922C32.59,26.356 32.352,26.598 32.264,26.664C32.177,26.73 32.147,26.712 32.198,26.712L32.198,22.712C31.362,22.712 30.528,22.965 29.858,23.469C29.188,23.973 28.59,24.821 28.59,25.922L32.59,25.922ZM32.198,26.712C32.25,26.712 32.22,26.73 32.132,26.664C32.044,26.598 31.806,26.356 31.806,25.922L35.806,25.922C35.806,24.821 35.208,23.973 34.538,23.469C33.869,22.965 33.035,22.712 32.198,22.712L32.198,26.712Z" fill="#F8964C"/>
<path d="M1.646,-0.289C0.541,-0.289 -0.354,0.606 -0.354,1.711C-0.354,2.815 0.541,3.711 1.646,3.711L1.646,-0.289ZM8.078,1.711L10.01,1.197C9.778,0.321 8.984,-0.289 8.078,-0.289L8.078,1.711ZM12.387,17.92L14.321,17.41L14.32,17.406L12.387,17.92ZM15.603,19.869L15.603,17.869C15.593,17.869 15.584,17.869 15.574,17.87L15.603,19.869ZM31.232,19.869L31.261,17.87C31.251,17.869 31.242,17.869 31.232,17.869L31.232,19.869ZM34.448,17.92L36.382,18.431L36.387,18.411L34.448,17.92ZM37.021,7.764L38.959,8.255C39.111,7.657 38.978,7.022 38.599,6.535C38.22,6.048 37.638,5.764 37.021,5.764L37.021,7.764ZM9.686,5.764C8.581,5.764 7.686,6.659 7.686,7.764C7.686,8.868 8.581,9.764 9.686,9.764L9.686,5.764ZM1.646,3.711L8.078,3.711L8.078,-0.289L1.646,-0.289L1.646,3.711ZM6.145,2.225L10.454,18.434L14.32,17.406L10.01,1.197L6.145,2.225ZM10.453,18.43C10.757,19.583 11.548,20.475 12.488,21.045L14.561,17.624C14.325,17.481 14.311,17.372 14.321,17.41L10.453,18.43ZM12.488,21.045C13.428,21.615 14.54,21.885 15.632,21.869L15.574,17.87C15.157,17.876 14.797,17.767 14.561,17.624L12.488,21.045ZM15.603,21.869L31.232,21.869L31.232,17.869L15.603,17.869L15.603,21.869ZM31.203,21.869C32.295,21.885 33.407,21.615 34.347,21.045L32.274,17.624C32.038,17.767 31.678,17.876 31.261,17.87L31.203,21.869ZM34.347,21.045C35.287,20.475 36.078,19.583 36.382,18.43L32.514,17.41C32.524,17.372 32.509,17.481 32.274,17.624L34.347,21.045ZM36.387,18.411L38.959,8.255L35.082,7.273L32.509,17.429L36.387,18.411ZM37.021,5.764L9.686,5.764L9.686,9.764L37.021,9.764L37.021,5.764Z" fill="#F8964C"/>
</svg>
