<svg width="78" height="52" viewBox="0 0 78 52" fill="none" xmlns="http://www.w3.org/2000/svg" xmlns:xlink="http://www.w3.org/1999/xlink">
<rect  x="0" y="0" width="76.375" height="52" rx="10" fill="#7D6F93"/>
<rect  x="48.862" y="7.2" width="37.194" height="21.756" rx="9.3" transform="rotate(180 48.862 7.2)" fill="#7D6F93" stroke="#A4A3A6" stroke-width="0.7" stroke-miterlimit="3.999327"/>
<path d="M0.054,26.805L0.752,26.743L0.752,26.743L0.054,26.805ZM0.054,25.601L-0.643,25.538L-0.643,25.538L0.054,25.601ZM6.73,20.2L26.812,20.2L26.812,18.8L6.73,18.8L6.73,20.2ZM26.812,32.206L6.73,32.206L6.73,33.606L26.812,33.606L26.812,32.206ZM0.752,26.743C0.719,26.384 0.719,26.023 0.752,25.664L-0.643,25.538C-0.683,25.98 -0.683,26.426 -0.643,26.868L0.752,26.743ZM6.73,32.206C3.624,32.206 1.031,29.836 0.752,26.743L-0.643,26.868C-0.299,30.684 2.9,33.606 6.73,33.606L6.73,32.206ZM6.73,18.8C2.9,18.8 -0.299,21.723 -0.643,25.538L0.752,25.664C1.031,22.57 3.624,20.2 6.73,20.2L6.73,18.8Z" transform="rotate(-360 13.406 26.203)" fill="#A4A3A6"/>
<path d="M49.171,27.571L48.483,27.699L48.483,27.699L49.171,27.571ZM49.16,25.229L49.849,25.35L49.849,25.35L49.16,25.229ZM55.934,20.2L76.375,20.2L76.375,18.8L55.934,18.8L55.934,20.2ZM76.375,32.206L55.595,32.206L55.595,33.606L76.375,33.606L76.375,32.206ZM49.859,27.442C49.731,26.756 49.728,26.04 49.849,25.35L48.471,25.108C48.321,25.961 48.323,26.846 48.483,27.699L49.859,27.442ZM55.595,32.206C52.785,32.206 50.375,30.204 49.859,27.442L48.483,27.699C49.122,31.124 52.111,33.606 55.595,33.606L55.595,32.206ZM55.934,18.8C52.253,18.8 49.106,21.495 48.471,25.108L49.849,25.35C50.369,22.394 52.945,20.2 55.934,20.2L55.934,18.8Z" transform="rotate(0 62.664 26.203)" fill="#A4A3A6"/>
<line x1="38.075" y1="0" x2="38.075" y2="7.313" fill="#7D6F93" stroke="#A4A3A6" stroke-width="0.7" stroke-miterlimit="3.999327"/>
<line x1="38.075" y1="44.688" x2="38.075" y2="52" fill="#7D6F93" stroke="#A4A3A6" stroke-width="0.7" stroke-miterlimit="3.999327"/>
</svg>
