<svg width="40" height="40" viewBox="0 0 40 40" fill="none" xmlns="http://www.w3.org/2000/svg" xmlns:xlink="http://www.w3.org/1999/xlink">
<path d="M15.253,23.883C15.253,23.441 14.895,23.083 14.453,23.083C14.011,23.083 13.653,23.441 13.653,23.883L15.253,23.883ZM23.37,21.167L23.637,20.413L23.633,20.411L23.37,21.167ZM16.653,18.833L16.386,19.587L16.391,19.589L16.653,18.833ZM24.77,16.117C24.77,16.559 25.128,16.917 25.57,16.917C26.012,16.917 26.37,16.559 26.37,16.117L24.77,16.117ZM20.8,10C20.8,9.558 20.442,9.2 20,9.2C19.558,9.2 19.2,9.558 19.2,10L20.8,10ZM19.2,30C19.2,30.442 19.558,30.8 20,30.8C20.442,30.8 20.8,30.442 20.8,30L19.2,30ZM13.653,23.883C13.653,26.438 15.625,28.567 18.153,28.567L18.153,26.967C16.581,26.967 15.253,25.629 15.253,23.883L13.653,23.883ZM18.153,28.567L22.337,28.567L22.337,26.967L18.153,26.967L18.153,28.567ZM22.337,28.567C24.596,28.567 26.37,26.657 26.37,24.383L24.77,24.383C24.77,25.843 23.644,26.967 22.337,26.967L22.337,28.567ZM26.37,24.383C26.37,23.252 26.123,22.37 25.593,21.694C25.071,21.027 24.353,20.666 23.637,20.413L23.103,21.921C23.703,22.134 24.086,22.364 24.334,22.681C24.575,22.988 24.77,23.481 24.77,24.383L26.37,24.383ZM23.633,20.411L16.916,18.078L16.391,19.589L23.107,21.922L23.633,20.411ZM16.921,18.079C16.32,17.866 15.938,17.636 15.689,17.319C15.448,17.012 15.253,16.519 15.253,15.617L13.653,15.617C13.653,16.748 13.9,17.63 14.43,18.306C14.952,18.973 15.67,19.334 16.386,19.587L16.921,18.079ZM15.253,15.617C15.253,14.157 16.379,13.033 17.687,13.033L17.687,11.433C15.428,11.433 13.653,13.343 13.653,15.617L15.253,15.617ZM17.687,13.033L21.87,13.033L21.87,11.433L17.687,11.433L17.687,13.033ZM21.87,13.033C23.442,13.033 24.77,14.371 24.77,16.117L26.37,16.117C26.37,13.562 24.398,11.433 21.87,11.433L21.87,13.033ZM19.2,10L19.2,30L20.8,30L20.8,10L19.2,10Z" fill="#FFFFFF"/>
<path d="M20,37.467C29.647,37.467 37.467,29.647 37.467,20L35.867,20C35.867,28.763 28.763,35.867 20,35.867L20,37.467ZM37.467,20C37.467,10.353 29.647,2.533 20,2.533L20,4.133C28.763,4.133 35.867,11.237 35.867,20L37.467,20ZM20,2.533C10.353,2.533 2.533,10.353 2.533,20L4.133,20C4.133,11.237 11.237,4.133 20,4.133L20,2.533ZM2.533,20C2.533,29.647 10.353,37.467 20,37.467L20,35.867C11.237,35.867 4.133,28.763 4.133,20L2.533,20Z" fill="#FFFFFF"/>
</svg>
