<svg width="52" height="52" viewBox="0 0 52 52" fill="none" xmlns="http://www.w3.org/2000/svg" xmlns:xlink="http://www.w3.org/1999/xlink">
<g opacity="0.4">
<path d="M40.755,13.542L43.702,13.542C43.29,12.957 42.857,12.415 42.402,11.873L40.755,13.542Z" fill="#D64BC2"/>
</g>
<g opacity="0.4">
<path d="M40.127,9.577C39.585,9.122 39.043,8.688 38.458,8.277L38.458,11.223L40.127,9.577Z" fill="#D64BC2"/>
</g>
<g opacity="0.4">
<path d="M36.833,16.792C36.617,16.792 36.422,16.748 36.205,16.662C35.815,16.488 35.49,16.185 35.317,15.773C35.23,15.578 35.187,15.362 35.187,15.145L35.187,6.478C35.187,6.457 35.208,6.435 35.208,6.392C32.413,5.092 29.293,4.333 26,4.333C14.04,4.333 4.333,14.04 4.333,26C4.333,37.96 14.04,47.667 26,47.667C37.96,47.667 47.667,37.96 47.667,26C47.667,22.707 46.908,19.587 45.587,16.77C45.565,16.77 45.543,16.792 45.5,16.792L36.833,16.792Z" fill="#D64BC2"/>
</g>
<path d="M42.423,11.873L48.815,5.482C49.443,4.853 49.443,3.813 48.815,3.185C48.187,2.557 47.147,2.557 46.518,3.185L40.127,9.577C40.95,10.292 41.708,11.072 42.423,11.873Z" fill="#D64BC2"/>
<path d="M38.458,6.5C38.458,5.612 37.722,4.875 36.833,4.875C35.967,4.875 35.273,5.568 35.23,6.413C36.357,6.955 37.44,7.562 38.458,8.277L38.458,6.5Z" fill="#D64BC2"/>
<path d="M47.125,15.167C47.125,14.278 46.388,13.542 45.5,13.542L43.702,13.542C44.417,14.56 45.045,15.643 45.565,16.77C46.432,16.727 47.125,16.033 47.125,15.167Z" fill="#D64BC2"/>
<path d="M29.792,25.61L27.625,24.852L27.625,20.042L27.798,20.042C28.903,20.042 29.792,21.017 29.792,22.208C29.792,23.097 30.528,23.833 31.417,23.833C32.305,23.833 33.042,23.097 33.042,22.208C33.042,19.218 30.702,16.792 27.798,16.792L27.625,16.792L27.625,16.25C27.625,15.362 26.888,14.625 26,14.625C25.112,14.625 24.375,15.362 24.375,16.25L24.375,16.792L23.725,16.792C21.103,16.792 18.958,19.002 18.958,21.732C18.958,24.895 20.8,25.913 22.208,26.412L24.375,27.17L24.375,31.98L24.202,31.98C23.097,31.98 22.208,31.005 22.208,29.813C22.208,28.925 21.472,28.188 20.583,28.188C19.695,28.188 18.958,28.925 18.958,29.813C18.958,32.803 21.298,35.23 24.202,35.23L24.375,35.23L24.375,35.772C24.375,36.66 25.112,37.397 26,37.397C26.888,37.397 27.625,36.66 27.625,35.772L27.625,35.23L28.275,35.23C30.897,35.23 33.042,33.02 33.042,30.29C33.042,27.105 31.2,26.087 29.792,25.61ZM23.27,23.313C22.533,23.053 22.208,22.902 22.208,21.71C22.208,20.778 22.902,20.02 23.725,20.02L24.375,20.02L24.375,23.682L23.27,23.313ZM28.275,31.958L27.625,31.958L27.625,28.297L28.73,28.687C29.467,28.947 29.792,29.098 29.792,30.29C29.792,31.2 29.098,31.958 28.275,31.958Z" fill="#D64BC2"/>
</svg>
