<svg width="52" height="52" viewBox="0 0 52 52" fill="none" xmlns="http://www.w3.org/2000/svg" xmlns:xlink="http://www.w3.org/1999/xlink">
<g opacity="0.4">
<path d="M36.833,16.792C36.422,16.792 36.01,16.64 35.685,16.315C35.057,15.687 35.057,14.647 35.685,14.018L40.127,9.577C36.313,6.327 31.395,4.333 26,4.333C14.04,4.333 4.333,14.04 4.333,26C4.333,37.96 14.04,47.667 26,47.667C37.96,47.667 47.667,37.96 47.667,26C47.667,20.605 45.673,15.687 42.423,11.873L37.982,16.315C37.657,16.64 37.245,16.792 36.833,16.792Z" fill="#FF4437"/>
</g>
<path d="M29.792,25.61L27.625,24.852L27.625,20.042L27.798,20.042C28.903,20.042 29.792,21.017 29.792,22.208C29.792,23.097 30.528,23.833 31.417,23.833C32.305,23.833 33.042,23.097 33.042,22.208C33.042,19.218 30.702,16.792 27.798,16.792L27.625,16.792L27.625,16.25C27.625,15.362 26.888,14.625 26,14.625C25.112,14.625 24.375,15.362 24.375,16.25L24.375,16.792L23.725,16.792C21.103,16.792 18.958,19.002 18.958,21.732C18.958,24.895 20.8,25.913 22.208,26.412L24.375,27.17L24.375,31.98L24.202,31.98C23.097,31.98 22.208,31.005 22.208,29.813C22.208,28.925 21.472,28.188 20.583,28.188C19.695,28.188 18.958,28.925 18.958,29.813C18.958,32.803 21.298,35.23 24.202,35.23L24.375,35.23L24.375,35.772C24.375,36.66 25.112,37.397 26,37.397C26.888,37.397 27.625,36.66 27.625,35.772L27.625,35.23L28.275,35.23C30.897,35.23 33.042,33.02 33.042,30.29C33.042,27.105 31.2,26.087 29.792,25.61ZM23.27,23.313C22.533,23.053 22.208,22.902 22.208,21.71C22.208,20.778 22.902,20.02 23.725,20.02L24.375,20.02L24.375,23.682L23.27,23.313ZM28.275,31.958L27.625,31.958L27.625,28.297L28.73,28.687C29.467,28.947 29.792,29.098 29.792,30.29C29.792,31.2 29.098,31.958 28.275,31.958Z" fill="#FF4437"/>
<path d="M49.162,3.705C48.988,3.315 48.685,2.99 48.273,2.817C48.078,2.73 47.862,2.687 47.645,2.687L38.978,2.687C38.09,2.687 37.353,3.423 37.353,4.312C37.353,5.2 38.09,5.937 38.978,5.937L43.723,5.937L40.105,9.555C40.928,10.27 41.687,11.028 42.402,11.852L46.02,8.233L46.02,13C46.02,13.888 46.757,14.625 47.645,14.625C48.533,14.625 49.27,13.888 49.27,13L49.27,4.333C49.292,4.117 49.248,3.922 49.162,3.705Z" fill="#FF4437"/>
</svg>
