<svg width="36" height="30" viewBox="0 0 36 30" fill="none" xmlns="http://www.w3.org/2000/svg" xmlns:xlink="http://www.w3.org/1999/xlink">
<path d="M18.862,0.329C19.425,-0.233 20.188,-0.549 20.983,-0.549C21.778,-0.549 22.541,-0.233 23.104,0.329L35.104,12.329C35.666,12.892 35.982,13.655 35.982,14.45C35.982,15.246 35.666,16.008 35.104,16.571L23.104,28.571C22.538,29.118 21.78,29.42 20.994,29.413C20.207,29.406 19.455,29.091 18.898,28.535C18.342,27.978 18.027,27.226 18.02,26.439C18.013,25.653 18.315,24.895 18.862,24.329L25.741,17.45L2.983,17.45C2.187,17.45 1.424,17.134 0.862,16.571C0.299,16.009 -0.017,15.246 -0.017,14.45C-0.017,13.654 0.299,12.891 0.862,12.329C1.424,11.766 2.187,11.45 2.983,11.45L25.741,11.45L18.862,4.571C18.3,4.008 17.984,3.246 17.984,2.45C17.984,1.655 18.3,0.892 18.862,0.329L18.862,0.329Z" clip-rule="evenodd" fill-rule="evenodd" transform="rotate(-180 17.983 14.432)" fill="#A6B6F4"/>
</svg>
