<svg width="64" height="42" viewBox="0 0 64 42" fill="none" xmlns="http://www.w3.org/2000/svg" xmlns:xlink="http://www.w3.org/1999/xlink">
<path d="M31.288,0.516C29.805,0.516 29.311,1.26 28.322,2.005L-0.352,37.364C-0.846,37.736 -0.846,38.48 -0.846,38.853C-0.846,40.714 1.131,41.458 2.614,41.458L59.962,41.458C61.94,41.458 63.423,40.714 63.423,38.853C63.423,38.108 63.423,38.108 62.929,37.364L34.749,2.005C33.76,1.26 32.771,0.516 31.288,0.516ZM31.288,6.099L47.603,26.57L43.648,26.57L36.232,20.987L31.288,26.57L26.344,20.987L18.929,26.57L14.479,26.57L31.288,6.099Z" fill="url(#pf_0_1_54)"/>
<defs>
<linearGradient id="pf_0_1_54" x1="31.288" y1="0.516" x2="31.288" y2="41.458" gradientUnits="userSpaceOnUse">
<stop stop-color="#7CB4F9"/>
<stop offset="1" stop-color="#6DA2E4"/>
</linearGradient>
</defs>
</svg>
