<svg width="66" height="90" viewBox="0 0 66 90" fill="none" xmlns="http://www.w3.org/2000/svg" xmlns:xlink="http://www.w3.org/1999/xlink">
<path d="M32.675,0.007C30.335,-0.029 27.948,0.088 26.35,0.374C19.537,1.555 13.795,4.444 9.043,9.086C4.152,13.864 1.13,19.433 -0.336,26.374L-0.846,28.736L-0.971,88C0.096,88.029 1.196,87.853 2.117,87.78C10.726,86.728 18.045,81.514 22.03,73.605C23.039,71.588 23.761,69.271 24.267,66.381C24.681,63.925 24.707,63.111 24.637,50.318L24.575,36.846L25.096,35.537C25.818,33.741 27.82,31.742 29.613,31.016L30.926,30.496L43.194,30.474C49.941,30.474 55.859,30.382 56.321,30.294C58.466,29.88 60.761,28.083 61.682,26.092C61.946,25.542 62.298,24.471 62.452,23.749C62.69,22.543 62.672,22.213 62.32,20.856C61.227,16.823 57.37,11.238 53.428,7.971C48.955,4.264 44.027,1.797 38.703,0.543C37.302,0.227 35.01,0.04 32.671,0.007L32.675,0.007ZM63.973,24.941C63.79,25.601 63.614,26.286 63.343,26.855C62.713,28.188 61.781,29.356 60.622,30.266C59.462,31.176 58.106,31.803 56.662,32.098C43.194,32.303 47.352,32.3 43.194,32.303L31.285,32.325L30.295,32.718C29.147,33.18 27.263,35.064 26.801,36.212L26.408,37.195L26.471,50.307C26.526,60.9 26.496,63.441 26.251,65.432C28.148,65.769 30.072,65.94 32,65.941C36.33,65.941 40.617,65.089 44.617,63.432C48.617,61.775 52.252,59.346 55.314,56.284C58.375,53.223 60.804,49.588 62.461,45.588C64.118,41.588 64.971,37.3 64.971,32.971C64.969,30.263 64.634,27.566 63.973,24.941L63.973,24.941Z" fill="#FFFFFF"/>
</svg>
