<svg width="12" height="18" viewBox="0 0 12 18" fill="none" xmlns="http://www.w3.org/2000/svg" xmlns:xlink="http://www.w3.org/1999/xlink">
<path d="M1.293,15.213C0.902,15.603 0.902,16.237 1.293,16.627C1.683,17.018 2.317,17.018 2.707,16.627L1.293,15.213ZM2.707,-0.627C2.317,-1.018 1.683,-1.018 1.293,-0.627C0.902,-0.237 0.902,0.397 1.293,0.787L2.707,-0.627ZM2.707,16.627L9.227,10.107L7.813,8.693L1.293,15.213L2.707,16.627ZM9.227,10.107C10.388,8.947 10.388,7.053 9.227,5.893L7.813,7.307C8.192,7.687 8.192,8.313 7.813,8.693L9.227,10.107ZM9.227,5.893L2.707,-0.627L1.293,0.787L7.813,7.307L9.227,5.893Z" fill="#BFBFBF"/>
</svg>
