<svg width="34" height="24" viewBox="0 0 34 24" fill="none" xmlns="http://www.w3.org/2000/svg" xmlns:xlink="http://www.w3.org/1999/xlink">
<path d="M31,0.125L1,0.125C0.503,0.125 0.026,0.323 -0.326,0.674C-0.677,1.026 -0.875,1.503 -0.875,2L-0.875,22C-0.875,22.497 -0.677,22.974 -0.326,23.326C0.026,23.677 0.503,23.875 1,23.875L31,23.875C31.497,23.875 31.974,23.677 32.326,23.326C32.677,22.974 32.875,22.497 32.875,22L32.875,2C32.875,1.503 32.677,1.026 32.326,0.674C31.974,0.323 31.497,0.125 31,0.125ZM1,1.375L31,1.375C31.166,1.375 31.325,1.441 31.442,1.558C31.559,1.675 31.625,1.834 31.625,2L31.625,6.375L0.375,6.375L0.375,2C0.375,1.834 0.441,1.675 0.558,1.558C0.675,1.441 0.834,1.375 1,1.375ZM31,22.625L1,22.625C0.834,22.625 0.675,22.559 0.558,22.442C0.441,22.325 0.375,22.166 0.375,22L0.375,7.625L31.625,7.625L31.625,22C31.625,22.166 31.559,22.325 31.442,22.442C31.325,22.559 31.166,22.625 31,22.625ZM27.875,18.25C27.875,18.416 27.809,18.575 27.692,18.692C27.575,18.809 27.416,18.875 27.25,18.875L22.25,18.875C22.084,18.875 21.925,18.809 21.808,18.692C21.691,18.575 21.625,18.416 21.625,18.25C21.625,18.084 21.691,17.925 21.808,17.808C21.925,17.691 22.084,17.625 22.25,17.625L27.25,17.625C27.416,17.625 27.575,17.691 27.692,17.808C27.809,17.925 27.875,18.084 27.875,18.25ZM17.875,18.25C17.875,18.416 17.809,18.575 17.692,18.692C17.575,18.809 17.416,18.875 17.25,18.875L14.75,18.875C14.584,18.875 14.425,18.809 14.308,18.692C14.191,18.575 14.125,18.416 14.125,18.25C14.125,18.084 14.191,17.925 14.308,17.808C14.425,17.691 14.584,17.625 14.75,17.625L17.25,17.625C17.416,17.625 17.575,17.691 17.692,17.808C17.809,17.925 17.875,18.084 17.875,18.25Z" fill="#FFFFFF"/>
</svg>
