<svg width="38" height="30" viewBox="0 0 38 30" fill="none" xmlns="http://www.w3.org/2000/svg" xmlns:xlink="http://www.w3.org/1999/xlink">
<path d="M17.14,28.529C16.577,29.091 15.814,29.407 15.019,29.407C14.223,29.407 13.46,29.091 12.898,28.529L0.898,16.529C0.335,15.966 0.019,15.203 0.019,14.408C0.019,13.612 0.335,12.849 0.898,12.287L12.898,0.287C13.464,-0.26 14.221,-0.562 15.008,-0.555C15.795,-0.549 16.547,-0.233 17.103,0.323C17.659,0.879 17.975,1.632 17.982,2.418C17.989,3.205 17.686,3.963 17.14,4.529L10.261,11.408L33.019,11.408C33.814,11.408 34.577,11.724 35.14,12.286C35.703,12.849 36.019,13.612 36.019,14.408C36.019,15.203 35.703,15.966 35.14,16.529C34.577,17.091 33.814,17.408 33.019,17.408L10.261,17.408L17.14,24.287C17.702,24.849 18.018,25.612 18.018,26.408C18.018,27.203 17.702,27.966 17.14,28.529L17.14,28.529Z" clip-rule="evenodd" fill-rule="evenodd" transform="rotate(-180 18.019 14.426)" fill="#00BD9D"/>
</svg>
