<svg width="46" height="38" viewBox="0 0 46 38" fill="none" xmlns="http://www.w3.org/2000/svg" xmlns:xlink="http://www.w3.org/1999/xlink">
<path d="M42.373,28.156L33.052,20.272L33.052,14.426C33.053,14.248 33.013,14.072 32.933,13.907C32.853,13.743 32.736,13.593 32.588,13.467L16.599,-0.034C16.45,-0.16 16.273,-0.261 16.078,-0.329C15.884,-0.398 15.675,-0.433 15.464,-0.433C15.252,-0.433 15.043,-0.398 14.849,-0.329C14.654,-0.261 14.477,-0.16 14.328,-0.034L-0.062,12.117C-0.212,12.243 -0.331,12.392 -0.412,12.556C-0.493,12.721 -0.535,12.897 -0.535,13.076C-0.535,13.254 -0.493,13.43 -0.412,13.595C-0.331,13.759 -0.212,13.909 -0.062,14.034L15.927,27.535C16.077,27.66 16.254,27.759 16.449,27.826C16.643,27.893 16.852,27.927 17.062,27.926L24.002,27.926L33.323,35.811C34.524,36.824 36.151,37.394 37.848,37.394C39.546,37.394 41.173,36.824 42.373,35.811C43.573,34.798 44.248,33.423 44.248,31.99C44.248,30.557 43.573,29.183 42.373,28.169L42.373,28.156ZM5.87,10.929L9.532,14.034L11.802,12.117L8.124,9.025L10.667,6.879L17.526,12.684L19.797,10.767L12.921,4.975L15.464,2.829L26,11.726L13.865,21.973L3.328,13.076L5.87,10.929ZM40.103,33.88C39.504,34.383 38.693,34.665 37.848,34.665C37.004,34.665 36.193,34.383 35.594,33.88L25.793,25.618C25.452,25.42 25.065,25.286 24.657,25.226L17.718,25.226L16.119,23.876L28.255,13.629L29.854,14.979L29.854,20.839C29.856,21.193 30.022,21.532 30.318,21.784L40.103,30.073C40.699,30.579 41.033,31.263 41.033,31.977C41.033,32.69 40.699,33.374 40.103,33.88Z" fill="url(#pf_0_1_95)"/>
<path d="M40.103,33.88C39.504,34.383 38.693,34.665 37.848,34.665C37.004,34.665 36.193,34.383 35.594,33.88L25.793,25.618C25.452,25.42 25.065,25.286 24.657,25.226L17.718,25.226L16.119,23.876L28.255,13.629L29.854,14.979L29.854,20.839C29.856,21.193 30.022,21.532 30.318,21.784L40.103,30.073C40.699,30.579 41.033,31.263 41.033,31.977C41.033,32.69 40.699,33.374 40.103,33.88Z" fill="url(#pf_0_1_95)"/>
<defs>
<linearGradient id="pf_0_1_95" x1="21.856" y1="-0.433" x2="21.856" y2="37.394" gradientUnits="userSpaceOnUse">
<stop stop-color="#FFA764"/>
<stop offset="1" stop-color="#F17F29"/>
</linearGradient>
<linearGradient id="pf_0_1_95" x1="21.856" y1="-0.433" x2="21.856" y2="37.394" gradientUnits="userSpaceOnUse">
<stop stop-color="#FFA764"/>
<stop offset="1" stop-color="#F17F29"/>
</linearGradient>
</defs>
</svg>
