<svg width="10" height="18" viewBox="0 0 10 18" fill="none" xmlns="http://www.w3.org/2000/svg" xmlns:xlink="http://www.w3.org/1999/xlink">
<path d="M0.203,15.213C-0.188,15.603 -0.188,16.237 0.203,16.627C0.593,17.018 1.226,17.018 1.617,16.627L0.203,15.213ZM1.617,-0.627C1.226,-1.018 0.593,-1.018 0.203,-0.627C-0.188,-0.237 -0.188,0.397 0.203,0.787L1.617,-0.627ZM1.617,16.627L8.137,10.107L6.723,8.693L0.203,15.213L1.617,16.627ZM8.137,10.107C9.298,8.947 9.298,7.053 8.137,5.893L6.723,7.307C7.102,7.687 7.102,8.313 6.723,8.693L8.137,10.107ZM8.137,5.893L1.617,-0.627L0.203,0.787L6.723,7.307L8.137,5.893Z" fill="#848484"/>
</svg>
