<svg width="88" height="88" viewBox="0 0 88 88" fill="none" xmlns="http://www.w3.org/2000/svg" xmlns:xlink="http://www.w3.org/1999/xlink">
<path d="M9.778,88C7.089,88 4.786,87.043 2.87,85.13C0.957,83.214 0,80.911 0,78.222L0,9.778C0,7.089 0.957,4.786 2.87,2.87C4.786,0.957 7.089,0 9.778,0L29.333,0C32.022,0 34.325,0.957 36.241,2.87C38.155,4.786 39.111,7.089 39.111,9.778L39.111,78.222C39.111,80.911 38.155,83.214 36.241,85.13C34.325,87.043 32.022,88 29.333,88L9.778,88ZM58.667,34.222C55.978,34.222 53.677,33.264 51.764,31.348C49.847,29.434 48.889,27.133 48.889,24.444L48.889,9.778C48.889,7.089 49.847,4.786 51.764,2.87C53.677,0.957 55.978,0 58.667,0L78.222,0C80.911,0 83.214,0.957 85.13,2.87C87.043,4.786 88,7.089 88,9.778L88,24.444C88,27.133 87.043,29.434 85.13,31.348C83.214,33.264 80.911,34.222 78.222,34.222L58.667,34.222ZM58.667,88C55.978,88 53.677,87.043 51.764,85.13C49.847,83.214 48.889,80.911 48.889,78.222L48.889,53.778C48.889,51.089 49.847,48.786 51.764,46.87C53.677,44.957 55.978,44 58.667,44L78.222,44C80.911,44 83.214,44.957 85.13,46.87C87.043,48.786 88,51.089 88,53.778L88,78.222C88,80.911 87.043,83.214 85.13,85.13C83.214,87.043 80.911,88 78.222,88L58.667,88Z" fill="#E6E6E6"/>
</svg>
