<svg width="58" height="36" viewBox="0 0 58 36" fill="none" xmlns="http://www.w3.org/2000/svg" xmlns:xlink="http://www.w3.org/1999/xlink">
<path d="M55.945,15.793C53.44,6.072 49.671,0.884 44.08,-0.533C42.905,-0.829 41.685,-0.977 40.461,-0.972C38.842,-0.972 37.432,-0.633 35.94,-0.275C34.143,0.158 32.102,0.65 29.125,0.65C26.148,0.65 24.105,0.159 22.304,-0.274C20.812,-0.633 19.403,-0.972 17.789,-0.972C16.522,-0.976 15.261,-0.828 14.042,-0.534C8.48,0.877 4.713,6.063 2.172,15.787C-0.56,26.251 0.785,32.857 5.944,34.39C6.651,34.604 7.395,34.714 8.145,34.717C11.679,34.717 14.513,32.189 16.45,30.12C18.638,27.779 21.199,26.59 29.125,26.59C36.204,26.59 39.133,27.415 41.664,30.12C43.255,31.821 44.758,33.011 46.257,33.761C48.252,34.756 50.245,34.977 52.18,34.406C55.229,33.513 56.977,31.152 57.376,27.387C57.68,24.5 57.212,20.708 55.945,15.793ZM23.457,15.248L19.678,15.248L19.678,18.492C19.678,18.922 19.479,19.334 19.125,19.639C18.77,19.943 18.29,20.114 17.789,20.114C17.288,20.114 16.807,19.943 16.453,19.639C16.099,19.334 15.899,18.922 15.899,18.492L15.899,15.248L12.121,15.248C11.62,15.248 11.139,15.077 10.785,14.773C10.431,14.469 10.231,14.056 10.231,13.626C10.231,13.196 10.431,12.783 10.785,12.479C11.139,12.175 11.62,12.004 12.121,12.004L15.899,12.004L15.899,8.76C15.899,8.33 16.099,7.917 16.453,7.613C16.807,7.309 17.288,7.138 17.789,7.138C18.29,7.138 18.77,7.309 19.125,7.613C19.479,7.917 19.678,8.33 19.678,8.76L19.678,12.004L23.457,12.004C23.958,12.004 24.438,12.175 24.793,12.479C25.147,12.783 25.346,13.196 25.346,13.626C25.346,14.056 25.147,14.469 24.793,14.773C24.438,15.077 23.958,15.248 23.457,15.248ZM33.376,15.653C32.909,15.653 32.452,15.534 32.064,15.312C31.675,15.089 31.373,14.772 31.194,14.402C31.015,14.031 30.968,13.624 31.059,13.23C31.151,12.837 31.375,12.476 31.706,12.192C32.036,11.909 32.457,11.716 32.915,11.637C33.373,11.559 33.848,11.599 34.279,11.753C34.711,11.906 35.08,12.166 35.339,12.499C35.599,12.833 35.737,13.225 35.737,13.626C35.737,14.164 35.489,14.679 35.046,15.059C34.603,15.44 34.002,15.653 33.376,15.653L33.376,15.653ZM38.571,20.114C38.104,20.114 37.647,19.995 37.259,19.772C36.87,19.549 36.567,19.232 36.389,18.861C36.21,18.49 36.164,18.082 36.256,17.689C36.347,17.295 36.573,16.934 36.903,16.651C37.234,16.367 37.656,16.175 38.114,16.097C38.573,16.019 39.048,16.06 39.479,16.215C39.911,16.369 40.279,16.629 40.538,16.964C40.797,17.298 40.934,17.69 40.933,18.091C40.931,18.628 40.682,19.142 40.239,19.522C39.796,19.901 39.197,20.114 38.571,20.114L38.571,20.114ZM38.571,11.193C38.104,11.193 37.648,11.074 37.259,10.851C36.871,10.628 36.568,10.312 36.389,9.941C36.211,9.571 36.164,9.163 36.255,8.77C36.346,8.377 36.571,8.015 36.901,7.732C37.232,7.448 37.652,7.255 38.111,7.177C38.569,7.099 39.044,7.139 39.475,7.292C39.907,7.446 40.275,7.706 40.535,8.039C40.794,8.372 40.933,8.764 40.933,9.165C40.933,9.703 40.684,10.219 40.241,10.599C39.798,10.979 39.198,11.193 38.571,11.193ZM43.767,15.653C43.3,15.653 42.843,15.534 42.455,15.312C42.067,15.089 41.764,14.772 41.585,14.402C41.406,14.031 41.36,13.624 41.451,13.23C41.542,12.837 41.767,12.476 42.097,12.192C42.427,11.909 42.848,11.716 43.306,11.637C43.764,11.559 44.239,11.599 44.671,11.753C45.102,11.906 45.471,12.166 45.731,12.499C45.99,12.833 46.129,13.225 46.129,13.626C46.129,14.164 45.88,14.679 45.437,15.059C44.994,15.44 44.393,15.653 43.767,15.653L43.767,15.653Z" fill="url(#pf_0_1_100)"/>
<defs>
<linearGradient id="pf_0_1_100" x1="29.127" y1="-0.972" x2="29.127" y2="34.717" gradientUnits="userSpaceOnUse">
<stop stop-color="#22B04A"/>
<stop offset="1" stop-color="#1E9540"/>
</linearGradient>
</defs>
</svg>
