<svg width="72" height="72" viewBox="0 0 72 72" fill="none" xmlns="http://www.w3.org/2000/svg" xmlns:xlink="http://www.w3.org/1999/xlink">
<path d="M36,5.2C40.045,5.2 44.05,5.997 47.787,7.545C51.523,9.092 54.919,11.361 57.779,14.221C60.639,17.081 62.908,20.477 64.455,24.213C66.003,27.95 66.8,31.955 66.8,36C66.8,40.045 66.003,44.05 64.455,47.787C62.908,51.523 60.639,54.919 57.779,57.779C54.919,60.639 51.523,62.908 47.787,64.455C44.05,66.003 40.045,66.8 36,66.8L36,5.2ZM36,0.8C26.664,0.8 17.711,4.509 11.11,11.11C4.509,17.711 0.8,26.664 0.8,36C0.8,45.336 4.509,54.289 11.11,60.89C17.711,67.491 26.664,71.2 36,71.2C45.336,71.2 54.289,67.491 60.89,60.89C67.491,54.289 71.2,45.336 71.2,36C71.2,26.664 67.491,17.711 60.89,11.11C54.289,4.509 45.336,0.8 36,0.8L36,0.8Z" fill="#FFFFFF"/>
</svg>
