<svg width="26" height="22" viewBox="0 0 26 22" fill="none" xmlns="http://www.w3.org/2000/svg" xmlns:xlink="http://www.w3.org/1999/xlink">
<path d="M1.2,8.7C0.482,8.7 -0.1,9.282 -0.1,10C-0.1,10.718 0.482,11.3 1.2,11.3L1.2,8.7ZM24,10L24.919,10.919C25.427,10.412 25.427,9.588 24.919,9.081L24,10ZM15.919,0.081C15.412,-0.427 14.588,-0.427 14.081,0.081C13.573,0.588 13.573,1.412 14.081,1.919L15.919,0.081ZM14.081,18.081C13.573,18.588 13.573,19.412 14.081,19.919C14.588,20.427 15.412,20.427 15.919,19.919L14.081,18.081ZM1.2,11.3L24,11.3L24,8.7L1.2,8.7L1.2,11.3ZM24.919,9.081L15.919,0.081L14.081,1.919L23.081,10.919L24.919,9.081ZM23.081,9.081L14.081,18.081L15.919,19.919L24.919,10.919L23.081,9.081Z" fill="#FFFFFF"/>
</svg>
