<svg width="12" height="12" viewBox="0 0 12 12" fill="none" xmlns="http://www.w3.org/2000/svg" xmlns:xlink="http://www.w3.org/1999/xlink">
<path d="M2.5,5C2.006,5 1.522,4.853 1.111,4.579C0.7,4.304 0.38,3.914 0.19,3.457C0.001,3 -0.048,2.497 0.048,2.012C0.145,1.527 0.383,1.082 0.732,0.732C1.082,0.383 1.527,0.145 2.012,0.048C2.497,-0.048 3,0.001 3.457,0.19C3.914,0.38 4.304,0.7 4.579,1.111C4.853,1.522 5,2.006 5,2.5C4.999,3.163 4.736,3.798 4.267,4.267C3.798,4.736 3.163,4.999 2.5,5ZM0,11.293L11.293,0L12,0.708L0.707,12L0,11.293ZM9.5,12C9.006,12 8.522,11.853 8.111,11.579C7.7,11.304 7.38,10.914 7.19,10.457C7.001,10 6.952,9.497 7.048,9.012C7.144,8.527 7.383,8.082 7.732,7.732C8.082,7.383 8.527,7.145 9.012,7.048C9.497,6.952 10,7.001 10.457,7.19C10.914,7.38 11.304,7.7 11.579,8.111C11.853,8.522 12,9.006 12,9.5C11.999,10.163 11.736,10.798 11.267,11.267C10.798,11.736 10.163,11.999 9.5,12Z" fill="#FFFFFF"/>
</svg>
