<svg width="66" height="70" viewBox="0 0 66 70" fill="none" xmlns="http://www.w3.org/2000/svg" xmlns:xlink="http://www.w3.org/1999/xlink">
<path d="M43,61.667C43.001,63.517 42.302,65.299 41.044,66.655C39.786,68.012 38.062,68.843 36.217,68.982L35.667,69L28.333,69C26.483,69.001 24.701,68.302 23.345,67.044C21.988,65.786 21.157,64.062 21.018,62.217L21,61.667L43,61.667ZM32,-0.667C38.655,-0.667 45.05,1.918 49.836,6.542C54.621,11.167 57.424,17.469 57.652,24.12L57.667,25L57.667,38.801L64.347,52.163C64.639,52.746 64.785,53.391 64.773,54.042C64.76,54.694 64.59,55.333 64.277,55.905C63.964,56.477 63.517,56.964 62.974,57.325C62.431,57.686 61.809,57.91 61.161,57.978L60.739,58L3.261,58C2.609,58 1.966,57.842 1.389,57.54C0.811,57.237 0.315,56.799 -0.056,56.263C-0.427,55.727 -0.663,55.109 -0.743,54.462C-0.823,53.815 -0.745,53.158 -0.516,52.548L-0.347,52.163L6.333,38.801L6.333,25C6.333,18.193 9.038,11.664 13.851,6.851C18.664,2.037 25.193,-0.667 32,-0.667L32,-0.667Z" fill="#FFFFFF"/>
</svg>
