<svg width="12" height="18" viewBox="0 0 12 18" fill="none" xmlns="http://www.w3.org/2000/svg" xmlns:xlink="http://www.w3.org/1999/xlink">
<path d="M1.285,15.213C0.895,15.603 0.895,16.237 1.285,16.627C1.676,17.018 2.309,17.018 2.7,16.627L1.285,15.213ZM2.7,-0.627C2.309,-1.018 1.676,-1.018 1.285,-0.627C0.895,-0.237 0.895,0.397 1.285,0.787L2.7,-0.627ZM2.7,16.627L9.22,10.107L7.805,8.693L1.285,15.213L2.7,16.627ZM9.22,10.107C10.38,8.947 10.38,7.053 9.22,5.893L7.805,7.307C8.185,7.687 8.185,8.313 7.805,8.693L9.22,10.107ZM9.22,5.893L2.7,-0.627L1.285,0.787L7.805,7.307L9.22,5.893Z" transform="rotate(360 5.541 8)" fill="#A0A0A0"/>
</svg>
