<svg width="74" height="74" viewBox="0 0 74 74" fill="none" xmlns="http://www.w3.org/2000/svg" xmlns:xlink="http://www.w3.org/1999/xlink">
<path d="M39.18,50.66L51.512,38.328C52.088,37.748 52.412,36.964 52.412,36.147C52.412,35.33 52.088,34.546 51.512,33.966L39.18,21.634C38.6,21.064 37.819,20.747 37.006,20.751C36.193,20.754 35.414,21.079 34.84,21.654C34.265,22.228 33.94,23.007 33.937,23.82C33.933,24.632 34.251,25.414 34.82,25.994L41.89,33.064L24.667,33.064C23.849,33.064 23.065,33.389 22.486,33.967C21.908,34.545 21.583,35.329 21.583,36.147C21.583,36.965 21.908,37.749 22.486,38.327C23.065,38.906 23.849,39.231 24.667,39.231L41.89,39.231L34.82,46.301C34.248,46.88 33.928,47.662 33.931,48.477C33.933,49.291 34.258,50.071 34.834,50.647C35.409,51.223 36.19,51.547 37.004,51.55C37.818,51.552 38.6,51.233 39.18,50.66Z" fill="#ED017F"/>
<path d="M67.833,36.147C67.833,30.049 66.025,24.088 62.637,19.017C59.249,13.947 54.433,9.995 48.799,7.661C43.165,5.327 36.966,4.717 30.985,5.906C25.004,7.096 19.51,10.033 15.198,14.345C10.885,18.657 7.949,24.151 6.759,30.132C5.569,36.113 6.18,42.312 8.514,47.947C10.847,53.581 14.799,58.396 19.87,61.784C24.94,65.172 30.902,66.98 37,66.98C45.175,66.971 53.012,63.72 58.792,57.94C64.573,52.159 67.824,44.322 67.833,36.147L67.833,36.147ZM34.82,50.66C34.534,50.374 34.306,50.034 34.151,49.66C33.996,49.286 33.917,48.885 33.917,48.48C33.917,48.075 33.996,47.675 34.151,47.301C34.306,46.926 34.534,46.587 34.82,46.3L41.89,39.23L24.667,39.23C23.849,39.23 23.065,38.906 22.486,38.327C21.908,37.749 21.583,36.965 21.583,36.147C21.583,35.329 21.908,34.545 22.486,33.967C23.065,33.389 23.849,33.064 24.667,33.064L41.89,33.064L34.82,25.994C34.251,25.414 33.933,24.632 33.937,23.82C33.94,23.007 34.265,22.228 34.84,21.654C35.414,21.079 36.193,20.754 37.006,20.751C37.819,20.747 38.6,21.064 39.18,21.634L51.512,33.966C52.088,34.546 52.412,35.33 52.412,36.147C52.412,36.964 52.088,37.749 51.512,38.328L39.18,50.66C38.894,50.947 38.554,51.174 38.18,51.329C37.806,51.484 37.405,51.564 37,51.564C36.595,51.564 36.194,51.484 35.82,51.329C35.446,51.174 35.106,50.947 34.82,50.66Z" fill="#FCE0EF"/>
</svg>
