<svg width="64" height="64" viewBox="0 0 64 64" fill="none" xmlns="http://www.w3.org/2000/svg" xmlns:xlink="http://www.w3.org/1999/xlink">
<path d="M52.242,33.698C52.242,34.644 53.009,35.412 53.956,35.412C54.903,35.412 55.67,34.644 55.67,33.698L52.242,33.698ZM1.384,24.555L-0.33,24.555L1.384,24.555ZM1.384,56.555L-0.33,56.555L1.384,56.555ZM55.67,45.126C55.67,44.179 54.903,43.412 53.956,43.412C53.009,43.412 52.242,44.179 52.242,45.126L55.67,45.126ZM55.67,33.698L55.67,24.555L52.242,24.555L52.242,33.698L55.67,33.698ZM55.67,24.555C55.67,22.888 55.008,21.289 53.829,20.11L51.405,22.534C51.941,23.07 52.242,23.797 52.242,24.555L55.67,24.555ZM53.829,20.11C52.65,18.931 51.051,18.269 49.384,18.269L49.384,21.698C50.142,21.698 50.869,21.999 51.405,22.534L53.829,20.11ZM49.384,18.269L5.956,18.269L5.956,21.698L49.384,21.698L49.384,18.269ZM5.956,18.269C4.289,18.269 2.69,18.931 1.511,20.11L3.936,22.534C4.471,21.999 5.198,21.698 5.956,21.698L5.956,18.269ZM1.511,20.11C0.332,21.289 -0.33,22.888 -0.33,24.555L3.099,24.555C3.099,23.797 3.4,23.07 3.936,22.534L1.511,20.11ZM-0.33,24.555L-0.33,56.555L3.099,56.555L3.099,24.555L-0.33,24.555ZM-0.33,56.555C-0.33,58.222 0.332,59.82 1.511,60.999L3.936,58.575C3.4,58.039 3.099,57.312 3.099,56.555L-0.33,56.555ZM1.511,60.999C2.69,62.178 4.289,62.84 5.956,62.84L5.956,59.412C5.198,59.412 4.471,59.111 3.936,58.575L1.511,60.999ZM5.956,62.84L49.384,62.84L49.384,59.412L5.956,59.412L5.956,62.84ZM49.384,62.84C51.051,62.84 52.65,62.178 53.829,60.999L51.405,58.575C50.869,59.111 50.142,59.412 49.384,59.412L49.384,62.84ZM53.829,60.999C55.008,59.82 55.67,58.222 55.67,56.555L52.242,56.555C52.242,57.312 51.941,58.039 51.405,58.575L53.829,60.999ZM55.67,56.555L55.67,45.126L52.242,45.126L52.242,56.555L55.67,56.555Z" fill="#FFFFFF"/>
<path d="M16.22,6.896C15.304,7.135 14.755,8.072 14.994,8.988C15.233,9.904 16.17,10.452 17.086,10.213L16.22,6.896ZM42.573,1.789L43.006,3.448C43.017,3.445 43.027,3.442 43.038,3.439L42.573,1.789ZM45.362,3.435L43.692,3.825L43.698,3.85L45.362,3.435ZM44.978,8.97C45.208,9.889 46.139,10.447 47.057,10.218C47.976,9.988 48.534,9.057 48.305,8.139L44.978,8.97ZM17.086,10.213L43.006,3.448L42.14,0.13L16.22,6.896L17.086,10.213ZM43.038,3.439C43.106,3.42 43.178,3.415 43.248,3.424L43.69,0.024C43.16,-0.045 42.622,-0.006 42.108,0.139L43.038,3.439ZM43.248,3.424C43.319,3.433 43.387,3.456 43.448,3.492L45.19,0.54C44.73,0.268 44.22,0.093 43.69,0.024L43.248,3.424ZM43.448,3.492C43.509,3.528 43.562,3.576 43.604,3.634L46.367,1.603C46.051,1.173 45.65,0.811 45.19,0.54L43.448,3.492ZM43.604,3.634C43.646,3.691 43.676,3.756 43.692,3.825L47.031,3.044C46.909,2.524 46.683,2.034 46.367,1.603L43.604,3.634ZM43.698,3.85L44.978,8.97L48.305,8.139L47.025,3.019L43.698,3.85Z" fill="#FFFFFF"/>
<path d="M47.099,35.412L58.527,35.412L58.527,31.983L47.099,31.983L47.099,35.412ZM58.527,35.412C58.843,35.412 59.099,35.668 59.099,35.983L62.527,35.983C62.527,33.774 60.736,31.983 58.527,31.983L58.527,35.412ZM59.099,35.983L59.099,42.84L62.527,42.84L62.527,35.983L59.099,35.983ZM59.099,42.84C59.099,43.156 58.843,43.412 58.527,43.412L58.527,46.84C60.736,46.84 62.527,45.05 62.527,42.84L59.099,42.84ZM58.527,43.412L47.099,43.412L47.099,46.84L58.527,46.84L58.527,43.412ZM47.099,43.412C46.783,43.412 46.527,43.156 46.527,42.84L43.099,42.84C43.099,45.05 44.89,46.84 47.099,46.84L47.099,43.412ZM46.527,42.84L46.527,35.983L43.099,35.983L43.099,42.84L46.527,42.84ZM46.527,35.983C46.527,35.668 46.783,35.412 47.099,35.412L47.099,31.983C44.89,31.983 43.099,33.774 43.099,35.983L46.527,35.983Z" fill="#FFFFFF"/>
</svg>
