<svg width="40" height="40" viewBox="0 0 40 40" fill="none" xmlns="http://www.w3.org/2000/svg" xmlns:xlink="http://www.w3.org/1999/xlink">
<path d="M18.333,34.583C9.367,34.583 2.083,27.3 2.083,18.333C2.083,9.367 9.367,2.083 18.333,2.083C27.3,2.083 34.583,9.367 34.583,18.333C34.583,27.3 27.3,34.583 18.333,34.583ZM18.333,4.583C10.75,4.583 4.583,10.75 4.583,18.333C4.583,25.917 10.75,32.083 18.333,32.083C25.917,32.083 32.083,25.917 32.083,18.333C32.083,10.75 25.917,4.583 18.333,4.583Z" fill="#FFFFFF"/>
<path d="M33.6,37.983C33.467,37.983 33.333,37.967 33.217,37.95C32.433,37.85 31.017,37.317 30.217,34.933C29.8,33.683 29.95,32.433 30.633,31.483C31.317,30.533 32.467,30 33.783,30C35.483,30 36.817,30.65 37.417,31.8C38.017,32.95 37.85,34.417 36.9,35.833C35.717,37.617 34.433,37.983 33.6,37.983ZM32.6,34.15C32.883,35.017 33.283,35.45 33.55,35.483C33.817,35.517 34.317,35.2 34.833,34.45C35.317,33.733 35.35,33.217 35.233,32.983C35.117,32.75 34.65,32.5 33.783,32.5C33.267,32.5 32.883,32.667 32.667,32.95C32.467,33.233 32.433,33.667 32.6,34.15Z" fill="#FFFFFF"/>
</svg>
