<svg width="68" height="68" viewBox="0 0 68 68" fill="none" xmlns="http://www.w3.org/2000/svg" xmlns:xlink="http://www.w3.org/1999/xlink">
<path d="M8.333,1C6.388,1 4.523,1.773 3.148,3.148C1.773,4.523 1,6.388 1,8.333L1,59.667C1,61.612 1.773,63.477 3.148,64.852C4.523,66.227 6.388,67 8.333,67L59.667,67C61.612,67 63.477,66.227 64.852,64.852C66.227,63.477 67,61.612 67,59.667L67,8.333C67,6.388 66.227,4.523 64.852,3.148C63.477,1.773 61.612,1 59.667,1L8.333,1ZM46.709,18.384C45.689,14.988 40.941,14.827 39.694,18.149L32.368,37.681L28.339,25.592C27.297,22.461 22.989,22.157 21.515,25.105L17.067,34L15.667,34C14.694,34 13.762,34.386 13.074,35.074C12.386,35.762 12,36.694 12,37.667C12,38.639 12.386,39.572 13.074,40.259C13.762,40.947 14.694,41.333 15.667,41.333L19.311,41.333C20.712,41.333 21.995,40.541 22.622,39.287L24.155,36.226L28.654,49.726C29.758,53.037 34.411,53.125 35.635,49.858L42.782,30.806L45.147,38.693C45.616,40.263 47.057,41.333 48.692,41.333L52.333,41.333C53.306,41.333 54.238,40.947 54.926,40.259C55.614,39.572 56,38.639 56,37.667C56,36.694 55.614,35.762 54.926,35.074C54.238,34.386 53.306,34 52.333,34L51.395,34L46.709,18.384Z" clip-rule="evenodd" fill-rule="evenodd" fill="#7A7A7A"/>
</svg>
