<svg width="72" height="74" viewBox="0 0 72 74" fill="none" xmlns="http://www.w3.org/2000/svg" xmlns:xlink="http://www.w3.org/1999/xlink">
<path d="M42.673,72.667L29.327,72.667C28.49,72.667 27.679,72.381 27.028,71.857C26.376,71.333 25.923,70.602 25.744,69.785L24.252,62.877C22.261,62.004 20.374,60.914 18.624,59.624L11.888,61.769C11.091,62.024 10.23,61.998 9.45,61.695C8.67,61.393 8.016,60.833 7.598,60.108L0.91,48.555C0.496,47.829 0.341,46.985 0.469,46.159C0.598,45.334 1.003,44.577 1.618,44.012L6.843,39.245C6.605,37.086 6.605,34.907 6.843,32.748L1.618,27.992C1.002,27.427 0.597,26.669 0.468,25.843C0.339,25.017 0.495,24.171 0.91,23.445L7.583,11.884C8.002,11.16 8.655,10.6 9.435,10.297C10.216,9.995 11.076,9.969 11.873,10.223L18.609,12.368C19.504,11.708 20.435,11.092 21.396,10.535C22.323,10.014 23.277,9.541 24.252,9.12L25.748,2.219C25.926,1.402 26.378,0.671 27.029,0.146C27.68,-0.379 28.49,-0.666 29.327,-0.667L42.673,-0.667C43.509,-0.666 44.32,-0.379 44.971,0.146C45.622,0.671 46.074,1.402 46.252,2.219L47.763,9.123C49.751,10.001 51.638,11.091 53.391,12.376L60.13,10.231C60.927,9.977 61.786,10.004 62.566,10.306C63.346,10.608 63.999,11.168 64.417,11.892L71.09,23.453C71.941,24.945 71.647,26.833 70.382,27.996L65.157,32.762C65.395,34.922 65.395,37.1 65.157,39.26L70.382,44.026C71.647,45.192 71.941,47.077 71.09,48.569L64.417,60.13C63.998,60.855 63.345,61.415 62.564,61.717C61.784,62.02 60.924,62.046 60.127,61.791L53.391,59.646C51.642,60.935 49.756,62.024 47.766,62.895L46.252,69.785C46.073,70.601 45.621,71.332 44.97,71.856C44.319,72.38 43.509,72.666 42.673,72.667L42.673,72.667ZM35.985,21.333C32.095,21.333 28.365,22.879 25.614,25.629C22.864,28.38 21.319,32.11 21.319,36C21.319,39.89 22.864,43.62 25.614,46.371C28.365,49.122 32.095,50.667 35.985,50.667C39.875,50.667 43.606,49.122 46.356,46.371C49.107,43.62 50.652,39.89 50.652,36C50.652,32.11 49.107,28.38 46.356,25.629C43.606,22.879 39.875,21.333 35.985,21.333L35.985,21.333Z" fill="#7A7A7A"/>
</svg>
