<svg width="36" height="10" viewBox="0 0 36 10" fill="none" xmlns="http://www.w3.org/2000/svg" xmlns:xlink="http://www.w3.org/1999/xlink">
<path d="M3.333,0.453C1.133,0.453 -0.667,2.253 -0.667,4.453C-0.667,6.653 1.133,8.453 3.333,8.453C5.533,8.453 7.333,6.653 7.333,4.453C7.333,2.253 5.533,0.453 3.333,0.453ZM31.333,0.453C29.133,0.453 27.333,2.253 27.333,4.453C27.333,6.653 29.133,8.453 31.333,8.453C33.533,8.453 35.333,6.653 35.333,4.453C35.333,2.253 33.533,0.453 31.333,0.453ZM17.333,0.453C15.133,0.453 13.333,2.253 13.333,4.453C13.333,6.653 15.133,8.453 17.333,8.453C19.533,8.453 21.333,6.653 21.333,4.453C21.333,2.253 19.533,0.453 17.333,0.453Z" transform="rotate(0 17.333 4.453)" fill="#858585"/>
</svg>
