<?xml version="1.0" encoding="utf-8"?>
<!-- Generator: Adobe Illustrator 24.3.0, SVG Export Plug-In . SVG Version: 6.00 Build 0)  -->
<svg version="1.0" id="katman_1" xmlns="http://www.w3.org/2000/svg" xmlns:xlink="http://www.w3.org/1999/xlink" x="0px" y="0px"
	 viewBox="0 0 841.89 595.28" style="enable-background:new 0 0 841.89 595.28;" xml:space="preserve">
<style type="text/css">
	.st0{fill:#0E5685;}
	.st1{fill-rule:evenodd;clip-rule:evenodd;fill:#FFFFFF;}
	.st2{fill:#FFFFFF;filter:url(#Adobe_OpacityMaskFilter);}
	.st3{mask:url(#mask0_1_246_1_);}
</style>
<rect x="180.47" y="56.36" class="st0" width="481.89" height="481.89"/>
<path class="st1" d="M487.71,328.94c-0.11,0.06-0.22,0.12-0.33,0.18c-17.77,9.77-35.44,19.32-51.39,27.73
	c20.55-9.28,37.29-17.45,53.13-25.87C488.61,330.33,488.15,329.65,487.71,328.94z"/>
<path class="st1" d="M595.13,239.2c4.79,13.2-18.38,34.24-51.4,56.21c0.29,1.14,0.53,2.31,0.69,3.54c0.08-0.05,0.17-0.1,0.25-0.16
	C585.44,273.76,607.56,258.05,595.13,239.2z"/>
<path class="st1" d="M329.38,248.12l-1.65,0.36c-0.34,0.06-0.57,0.39-0.51,0.72c0.06,0.35,0.38,0.57,0.73,0.51l1.64-0.32
	c58.73-10.45,180.86-24.95,207.15,1.11c8.02,7.95,6.1,18.19-3.19,30.28c5.01,3.22,8.58,8.29,10.19,14.62
	c36.29-24.14,60.68-47.16,49.14-59.89c-8.46-9.33-31.94-12.87-62.19-12.87C468.3,222.64,377.11,237.7,329.38,248.12z M484.94,322.87
	c-16.43,11.64-35.9,23.86-56.84,36.69l-0.83,0.48c-0.28,0.2-0.35,0.59-0.15,0.87c0.11,0.17,0.29,0.26,0.48,0.27h0.06
	c0.11,0,0.23-0.04,0.33-0.11l0.7-0.37c17.76-9.27,38.16-20.28,58.69-31.57c0.11-0.06,0.22-0.12,0.33-0.18
	c-1.13-1.85-2.06-3.88-2.72-6.11C484.98,322.84,484.96,322.86,484.94,322.87z"/>
<path class="st1" d="M486.98,314.79c-0.59-17.16,12.85-34.7,32.37-34.7c13.06,0,21.61,8.7,22.08,22.03
	c0.63,18.09-11.93,34.71-32.37,34.71C496.01,336.83,487.46,328.14,486.98,314.79z M495.48,315.33c0.33,10.05,6.7,18.28,14.99,18.28
	c16.08,0,22.92-19.74,22.45-32.93c-0.34-10.08-6.87-18.3-15.15-18.3C503.93,282.39,495.01,302.05,495.48,315.33z"/>
<path class="st1" d="M319,299.71c-0.07,1.58-0.34,2.96-0.77,5.36l-2.87,16.12c-0.25,1.43,0.28,2.56,1.61,3.33l-0.09,0.63
	l-16.44-0.02l-0.15-4.1c-2.39,1.44-5.29,2.66-7.9,3.38c-2.6,0.67-4.71,0.96-7.88,0.96c-5.31,0-8.35-0.55-10.45-2.39
	c-2.13-1.9-3.17-3.16-3.06-5.77c0.08-1.51,0.86-3.43,1.99-4.78c1.14-1.37,2.69-2.27,4.38-3.06c1.7-0.81,3.69-1.4,6.59-1.85
	c2.91-0.47,6.96-0.94,12.38-1.4c2.85-0.24,4.59-0.9,5.4-1.22c1.13-0.44,1.58-0.93,1.74-1.85c0.31-1.65-0.22-2.6-2.42-3.04
	c-5.93-1.17-17.03,0.75-22.75,2.18l3.11-8.39c7.55-1.1,14.62-1.81,22.07-1.81C315.32,291.99,319.11,295.36,319,299.71z
	 M302.02,310.26c-0.7,0.26-1.6,0.52-2.72,0.76c-1.11,0.25-3.15,0.62-6.11,1.08c-2.04,0.32-3.45,0.75-4.26,1.32
	c-0.77,0.57-1.22,1.25-1.35,2.08c-0.16,0.89,0.13,1.59,0.89,2.15c0.78,0.54,2.09,0.83,3.94,0.83c1.39,0,2.74-0.22,4.06-0.65
	c1.33-0.43,2.45-1.03,3.31-1.76c0.63-0.55,1.09-1.25,1.43-2.08C301.4,313.44,301.69,312.21,302.02,310.26z"/>
<path class="st1" d="M373.24,285.48c0.47-2.65,4.65-4.8,9.31-4.8c4.68,0,8.09,2.15,7.64,4.8c-0.49,2.65-4.66,4.8-9.35,4.8
	C376.16,290.27,372.76,288.12,373.24,285.48z M366.66,325.14l5.71-32.21h15.74l-5.7,32.21H366.66z"/>
<path class="st1" d="M460.99,299.77c-0.07,1.58-0.34,2.97-0.77,5.36l-2.85,16.14c-0.25,1.42,0.28,2.54,1.6,3.33l-0.1,0.56
	l-16.44,0.03l-0.13-4.11c-2.4,1.46-5.31,2.67-7.9,3.37c-2.62,0.69-4.73,0.97-7.91,0.97c-5.3,0-8.33-0.53-10.43-2.39
	c-2.14-1.91-3.18-3.16-3.07-5.76c0.06-1.51,0.85-3.46,1.98-4.78c1.14-1.39,2.69-2.27,4.39-3.06c1.7-0.8,3.7-1.39,6.57-1.87
	c2.92-0.45,6.99-0.94,12.41-1.39c2.82-0.24,4.56-0.88,5.37-1.19c1.14-0.44,1.6-0.94,1.77-1.86c0.29-1.63-0.23-2.59-2.41-3.04
	c-5.95-1.18-17.03,0.75-22.75,2.18l3.09-8.39c7.58-1.11,14.62-1.82,22.07-1.82C457.31,292.04,461.08,295.44,460.99,299.77z
	 M444.02,310.34c-0.7,0.24-1.62,0.5-2.73,0.76c-1.1,0.26-3.14,0.59-6.12,1.08c-2.02,0.32-3.46,0.75-4.24,1.33
	c-0.75,0.55-1.2,1.24-1.37,2.07c-0.16,0.89,0.17,1.6,0.9,2.14c0.79,0.55,2.11,0.82,3.96,0.82c1.37,0,2.72-0.21,4.04-0.62
	c1.34-0.45,2.46-1.02,3.33-1.76c0.61-0.55,1.07-1.26,1.4-2.09C443.4,313.51,443.67,312.27,444.02,310.34z"/>
<defs>
	<filter id="Adobe_OpacityMaskFilter" filterUnits="userSpaceOnUse" x="223.05" y="279.74" width="53.13" height="46.12">
		<feColorMatrix  type="matrix" values="1 0 0 0 0  0 1 0 0 0  0 0 1 0 0  0 0 0 1 0"/>
	</filter>
</defs>
<mask maskUnits="userSpaceOnUse" x="223.05" y="279.74" width="53.13" height="46.12" id="mask0_1_246_1_">
	<path class="st2" d="M223.05,325.86v-46.12h53.13v46.12H223.05z"/>
</mask>
<g class="st3">
	<path class="st1" d="M268.84,313.57c-5.12,1.01-8.01,1.41-13.07,1.41c-7.52,0-13.5-3.73-13.17-10.58
		c0.23-4.56,5.63-14.18,19.35-14.18c4.32,0,7.7,0.76,12.24,3.35l2-11.19c-6.18-2.33-10.26-2.68-15.57-2.63
		c-17.98,0.2-35.27,8.38-37.41,25c-2.18,16.9,18.46,21.15,27.62,21.11c5.29-0.02,10.79-0.23,15.92-0.77L268.84,313.57z"/>
</g>
<path class="st1" d="M396.78,292.75l1.13-6.56l16.46-3.58l-1.75,10.14h8.06l-1.53,6.49l-7.82-0.02l-4.75,25.9c0,0-15.85-0.1-15.91,0
	l4.73-25.84h-5.99l1.22-6.53H396.78z"/>
<path class="st1" d="M476.97,325.12l-16.04,0.03l8.07-44.94l15.62,0.44L476.97,325.12z"/>
<path class="st1" d="M317.16,336.26l7.66-43.17h13.83l-1.07,5.51c1.2-1.65,3.12-3,5.76-4.1c2.67-1.09,5.67-1.9,8.93-1.9
	c3.61,0,5.83,0.19,8.53,1.59c2.68,1.41,4.56,3.45,5.58,6.11c1.04,2.62,1.25,5.57,0.69,8.77c-0.94,5.32-3.53,9.52-7.78,12.6
	c-4.23,3.08-8.02,3.89-13.45,3.91c-1.92,0-3.52-0.2-4.86-0.53c-1.3-0.34-2.34-0.75-3.13-1.26c-0.76-0.51-1.56-1.21-2.59-2.34
	l-2.57,14.8H317.16z M345.83,300.48c-2.07,0-3.93,0.63-5.6,1.88c-1.64,1.25-2.69,3.07-3.11,5.51c-0.49,2.81-0.2,4.83,0.91,6.07
	c1.13,1.24,2.74,1.86,4.87,1.86c1.44,0,2.92-0.26,4.01-0.79c1.35-0.71,2.28-1.47,3.08-2.65c0.87-1.25,1.43-2.64,1.73-4.25
	c0.45-2.54,0.07-4.45-1.11-5.71C349.46,301.12,347.88,300.48,345.83,300.48z"/>
<path class="st1" d="M604.37,324.27l1.25,0.84c-3.15,6.41-9.57,11.58-17.1,11.58c-6.16,0-11.21-4.1-11.48-11.8
	c-0.5-13.81,12.43-26.63,23.02-26.63c4.54,0,8.75,1.99,8.95,6.88c0.39,10.98-15.03,14.33-25.18,14.56c-0.33,1.15-0.46,2.3-0.4,4.05
	c0.17,4.55,2.93,8.38,8.62,8.38C596.97,332.12,601.88,328.17,604.37,324.27z M602.98,304.44c-0.09-2.6-1.39-4.34-4.07-4.34
	c-6.46,0-13.33,12.65-14.51,17.75C595,317.84,603.25,311.54,602.98,304.44z"/>
<path class="st1" d="M541.21,304.08c1.09-0.14,2.85-0.34,3.62-0.34c1.16,0,2.24,0.22,2.3,1.37c0.02,0.68-1.21,5.57-1.47,6.7
	l-2.46,10.83c-0.99,4.43-2.07,9.07-3.02,12.74h6.31l3.55-17.15c10.82-11.27,14.98-14.94,17.54-14.94c1.15,0,1.94,0.6,1.99,1.98
	c0.06,1.99-1.16,6.49-1.59,7.78l-3.62,12.51c-0.82,2.81-1.43,5.35-1.37,7.17c0.1,2.74,1.77,3.97,4.23,3.97
	c4.61,0,7.95-4.81,10.88-9.53l-0.86-1.55c-1.18,1.9-3.92,6.04-6.08,6.04c-0.68,0-1.32-0.46-1.34-1.6c-0.07-1.46,0.55-3.64,0.97-5.1
	l4.02-14.65c1.08-4.03,1.59-6.63,1.57-8.02c-0.1-2.74-1.7-4.02-4.14-4.02c-4.15,0-9.67,3.03-21.33,16.46h-0.17l1.47-6.55
	c0.8-3.59,1.58-7.32,2.34-9.91c-4.04,1.46-9.83,3.09-13.4,3.77L541.21,304.08z"/>
<path class="st1" d="M610.77,297.51c0.02,0.33,0.09,0.6,0.22,0.81c0.25,0.38,0.7,0.58,1.34,0.58c0.28,0,0.55-0.04,0.78-0.13
	c0.46-0.17,0.68-0.46,0.68-0.88c0-0.32-0.1-0.55-0.29-0.68c-0.19-0.13-0.5-0.25-0.92-0.35l-0.76-0.17c-0.5-0.12-0.86-0.25-1.06-0.39
	c-0.36-0.24-0.54-0.61-0.54-1.09c0-0.53,0.18-0.96,0.53-1.3c0.35-0.34,0.85-0.51,1.5-0.51c0.59,0,1.1,0.15,1.51,0.45
	c0.42,0.29,0.63,0.77,0.63,1.41h-0.74c-0.04-0.31-0.12-0.55-0.24-0.72c-0.23-0.31-0.63-0.46-1.18-0.46c-0.45,0-0.77,0.1-0.97,0.29
	c-0.19,0.2-0.29,0.42-0.29,0.69c0,0.28,0.11,0.49,0.34,0.63c0.15,0.09,0.5,0.19,1.03,0.32l0.79,0.18c0.39,0.1,0.68,0.21,0.89,0.37
	c0.36,0.27,0.54,0.67,0.54,1.19c0,0.64-0.23,1.11-0.69,1.39c-0.46,0.28-0.99,0.42-1.6,0.42c-0.71,0-1.26-0.19-1.66-0.56
	c-0.4-0.37-0.6-0.87-0.59-1.5H610.77z"/>
<path class="st1" d="M615.67,293.56h1.14l1.68,4.94l1.67-4.94h1.13v5.84h-0.76v-3.45c0-0.11,0-0.32,0.01-0.59
	c0.01-0.28,0.01-0.57,0.01-0.89l-1.67,4.93h-0.78l-1.68-4.93v0.18c0,0.14,0,0.36,0.01,0.65c0.01,0.29,0.01,0.5,0.01,0.64v3.45h-0.76
	V293.56z"/>
</svg>
