<?xml version="1.0" encoding="utf-8"?>
<!-- Generator: Adobe Illustrator 24.3.0, SVG Export Plug-In . SVG Version: 6.00 Build 0)  -->
<svg version="1.0" id="katman_1" xmlns="http://www.w3.org/2000/svg" xmlns:xlink="http://www.w3.org/1999/xlink" x="0px" y="0px"
	 viewBox="0 0 841.89 595.28" style="enable-background:new 0 0 841.89 595.28;" xml:space="preserve">
<style type="text/css">
	.st0{fill:#4BB05F;}
	.st1{fill:#FFFFFF;filter:url(#Adobe_OpacityMaskFilter);}
	.st2{mask:url(#mask0_1_106_1_);}
	.st3{fill-rule:evenodd;clip-rule:evenodd;fill:#FFFFFF;}
</style>
<rect x="189.1" y="64.99" class="st0" width="464.63" height="464.63"/>
<defs>
	<filter id="Adobe_OpacityMaskFilter" filterUnits="userSpaceOnUse" x="222.29" y="232.82" width="142.75" height="127.66">
		<feColorMatrix  type="matrix" values="1 0 0 0 0  0 1 0 0 0  0 0 1 0 0  0 0 0 1 0"/>
	</filter>
</defs>
<mask maskUnits="userSpaceOnUse" x="222.29" y="232.82" width="142.75" height="127.66" id="mask0_1_106_1_">
	<path class="st1" d="M222.29,360.48h142.75V232.82H222.29V360.48z"/>
</mask>
<g class="st2">
	<path class="st3" d="M315.99,332.86h-33.25v-59.91h16.7v49.31h16.06c11.09,0,15.74-7.71,15.74-27.47c0-19.92-5.3-25.7-16.55-25.7
		h-36.62v63.77h-16.55v-63.77h-24.25v-10.6h82.56c19.91,0,29.4,10.28,29.4,36.15C349.24,328.69,335.1,332.86,315.99,332.86z
		 M222.29,360.48h142.75V232.82H222.29V360.48z"/>
</g>
<path class="st3" d="M418.31,268.98h5.72c3.76,0,7.21,1.26,7.21,5.33c0,4.16-4,5.25-7.68,5.25h-5.26V268.98z M398.55,313.37h31.75
	c11.37,0,22.51-1.41,22.51-15.21c0-5.49-4.71-11.45-12.31-12.47v-0.15c7.29-1.88,11.29-5.88,11.29-13.41
	c0-10.43-9.33-13.49-18.82-13.49h-34.42V313.37z M418.31,290.86h5.64c3.93,0,7.85,0.86,7.85,5.57c0,4.23-4.16,5.64-8,5.64h-5.49
	V290.86z"/>
<path class="st3" d="M460.65,285.37c3.92-1.96,8.94-3.45,13.65-3.45c4.94,0,10.35,0.63,10.43,5.88c-1.8-0.15-4.94-0.55-7.68-0.55
	c-9.8,0-21.09,2.52-21.09,15.06c0,8.54,7.37,12,14.97,12c5.57,0,10.59-2.2,13.34-6.82h0.15v5.88h18.35v-24.86
	c0-14.9-13.73-16.93-25.02-16.93c-7.68,0-11.21,0.71-17.09,2.35V285.37z M484.72,296.66c0,3.53-2.04,7.3-6.12,7.3
	c-3.06,0-4.63-1.1-4.63-3.92c0-4.23,4.71-4.62,8.78-4.62h1.96V296.66z"/>
<path class="st3" d="M508.33,272.51h18.66v7.05h0.16c2.35-5.72,7.76-7.99,13.33-7.99c10.5,0,14.35,5.49,14.35,13.41v28.39h-19.76
	v-23.53c0-2.35,0-5.57-3.45-5.57c-3.53,0-3.53,3.22-3.53,5.57v23.53h-19.76V272.51z"/>
<path class="st3" d="M581.25,288.75h0.16l11.29-16.24h22.34l-13.8,18.03l14.35,22.83h-23.05l-11.13-19.84h-0.16v19.84h-19.76v-58.81
	h19.76V288.75z"/>
</svg>
